<?xml version="1.0" encoding="UTF-8" standalone="no"?>
<!-- Created with Inkscape (http://www.inkscape.org/) -->

<svg
   id="svg2613"
   sodipodi:docname="ananicy_logo.svg"
   viewBox="0 0 619.46661 324.23696"
   sodipodi:version="0.32"
   version="1.0"
   inkscape:output_extension="org.inkscape.output.svg.inkscape"
   inkscape:version="1.1.1 (3bf5ae0d25, 2021-09-20, custom)"
   width="619.46661"
   height="324.23697"
   xmlns:inkscape="http://www.inkscape.org/namespaces/inkscape"
   xmlns:sodipodi="http://sodipodi.sourceforge.net/DTD/sodipodi-0.dtd"
   xmlns:xlink="http://www.w3.org/1999/xlink"
   xmlns="http://www.w3.org/2000/svg"
   xmlns:svg="http://www.w3.org/2000/svg"
   xmlns:rdf="http://www.w3.org/1999/02/22-rdf-syntax-ns#"
   xmlns:cc="http://creativecommons.org/ns#"
   xmlns:dc="http://purl.org/dc/elements/1.1/">
  <defs
     id="defs2616">
    <inkscape:path-effect
       effect="mirror_symmetry"
       start_point="38.991893,160.41014"
       end_point="38.974679,184.91391"
       center_point="38.983286,172.66203"
       id="path-effect60227"
       is_visible="true"
       lpeversion="1.1"
       mode="free"
       discard_orig_path="false"
       fuse_paths="false"
       oposite_fuse="false"
       split_items="false"
       split_open="false" />
    <inkscape:path-effect
       effect="mirror_symmetry"
       start_point="38.991893,160.41014"
       end_point="38.974679,184.91391"
       center_point="38.983286,172.66203"
       id="path-effect59911"
       is_visible="true"
       lpeversion="1.1"
       mode="free"
       discard_orig_path="false"
       fuse_paths="false"
       oposite_fuse="false"
       split_items="false"
       split_open="false" />
    <inkscape:path-effect
       effect="mirror_symmetry"
       start_point="38.991893,160.41014"
       end_point="38.974679,184.91391"
       center_point="38.983286,172.66203"
       id="path-effect58450"
       is_visible="true"
       lpeversion="1.1"
       mode="free"
       discard_orig_path="false"
       fuse_paths="false"
       oposite_fuse="false"
       split_items="false"
       split_open="false" />
    <linearGradient
       id="linearGradient35775"
       inkscape:swatch="gradient">
      <stop
         style="stop-color:#1d0033;stop-opacity:1;"
         offset="0"
         id="stop37789" />
      <stop
         style="stop-color:#dc39ff;stop-opacity:0;"
         offset="1"
         id="stop37791" />
    </linearGradient>
    <linearGradient
       id="linearGradient35775-3"
       inkscape:swatch="gradient">
      <stop
         style="stop-color:#1b002f;stop-opacity:1;"
         offset="0"
         id="stop35771" />
      <stop
         style="stop-color:#dc39ff;stop-opacity:0;"
         offset="1"
         id="stop35773" />
    </linearGradient>
    <rect
       x="322.33481"
       y="95.419632"
       width="972.67096"
       height="212.61133"
       id="rect8895" />
    <clipPath
       id="clipPath3453"
       clipPathUnits="userSpaceOnUse">
      <rect
         id="rect3455"
         style="fill:none;stroke:#ff0000;stroke-width:8.6;stroke-linecap:round;stroke-linejoin:round"
         height="58.074001"
         width="103.7"
         y="43.592999"
         x="-129.19" />
    </clipPath>
    <clipPath
       id="clipPath3453-3"
       clipPathUnits="userSpaceOnUse">
      <rect
         id="rect3455-6"
         style="fill:none;stroke:#ff0000;stroke-width:8.6;stroke-linecap:round;stroke-linejoin:round"
         height="58.074001"
         width="103.7"
         y="43.592999"
         x="-129.19" />
    </clipPath>
    <linearGradient
       inkscape:collect="always"
       xlink:href="#linearGradient35775"
       id="linearGradient37948"
       x1="0.42842078"
       y1="133.47057"
       x2="251.42374"
       y2="133.47057"
       gradientUnits="userSpaceOnUse" />
  </defs>
  <sodipodi:namedview
     id="base"
     bordercolor="#666666"
     inkscape:pageshadow="2"
     guidetolerance="10.0"
     pagecolor="#ffffff"
     gridtolerance="10.0"
     inkscape:zoom="1.1932427"
     objecttolerance="10.0"
     borderopacity="1.0"
     inkscape:current-layer="text8893"
     inkscape:cx="304.63208"
     inkscape:cy="209.09409"
     inkscape:object-nodes="true"
     inkscape:window-y="0"
     inkscape:window-x="1280"
     inkscape:window-height="985"
     showgrid="false"
     inkscape:pageopacity="0.0"
     inkscape:window-width="1680"
     inkscape:pagecheckerboard="1"
     inkscape:window-maximized="1"
     inkscape:snap-bbox="true"
     inkscape:object-paths="true"
     inkscape:snap-smooth-nodes="true"
     inkscape:snap-midpoints="true"
     inkscape:snap-intersection-paths="true"
     inkscape:bbox-paths="true"
     inkscape:bbox-nodes="true"
     inkscape:snap-bbox-midpoints="true"
     inkscape:snap-bbox-edge-midpoints="true"
     inkscape:snap-others="true"
     inkscape:snap-object-midpoints="true"
     inkscape:snap-center="true"
     inkscape:snap-text-baseline="true" />
  <g
     id="layer2"
     inkscape:label="drawing#1"
     inkscape:groupmode="layer"
     transform="translate(166.78871,12.377748)" />
  <g
     id="g619"
     transform="translate(183.1315,-8.5484111)"
     style="fill:none;fill-opacity:1;stroke:url(#linearGradient37948);stroke-opacity:1;opacity:1">
    <g
       id="g38911"
       style="stroke:#000000;stroke-opacity:1">
      <path
         id="path2626"
         style="fill:none;fill-opacity:1;stroke:#000000;stroke-width:9.78986;stroke-linecap:round;stroke-opacity:1"
         d="m 50.591768,85.61779 c -0.16653,0 -0.332217,0 0,0 z"
         transform="translate(-11.439,-7.3467)" />
      <path
         id="path2628"
         style="fill:none;fill-opacity:1;stroke:#000000;stroke-width:9.78986;stroke-linecap:round;stroke-opacity:1"
         d="M 124.35243,57.93133 51.089666,84.267423"
         transform="translate(-11.439,-7.3467)" />
      <path
         id="path3402"
         style="fill:none;fill-opacity:1;stroke:#000000;stroke-width:9.78986;stroke-linecap:round;stroke-opacity:1"
         d="M 224.0333,20.790041 150.76973,47.127273"
         transform="translate(-11.439,-7.3467)" />
      <path
         id="path3410"
         sodipodi:nodetypes="cc"
         style="fill:none;fill-opacity:1;fill-rule:evenodd;stroke:#000000;stroke-width:9.78986;stroke-opacity:1"
         d="M 137.80919,64.684292 137.31297,263.21635"
         transform="translate(-11.439,-7.3467)" />
      <path
         id="path3412"
         sodipodi:nodetypes="cc"
         style="fill:none;fill-opacity:1;fill-rule:evenodd;stroke:#000000;stroke-width:9.96902;stroke-opacity:1"
         d="m 27.99115,260.28771 219.63941,0.46722"
         transform="translate(-11.439,-7.3467)" />
      <g
         id="g430"
         transform="translate(-0.498739,1.350708)"
         style="fill:none;fill-opacity:1;stroke:#000000;stroke-opacity:1">
        <g
           id="g60175">
          <path
             id="path3434"
             style="fill:none;fill-opacity:1;stroke:#000000;stroke-width:7.72;stroke-linecap:round;stroke-linejoin:round;stroke-opacity:1;stroke-miterlimit:4;stroke-dasharray:none"
             d="M 11.823211,153.44321 39.651507,76.920382 66.017969,153.44321"
             sodipodi:nodetypes="ccc" />
          <path
             style="fill:#000000;fill-opacity:1;stroke:#000000;stroke-width:7.72355;stroke-linecap:butt;stroke-linejoin:miter;stroke-miterlimit:4;stroke-dasharray:none;stroke-opacity:1"
             d="m 11.41378,160.23377 27.578445,0.1683 -0.06174,24.51758 c -3.814039,-0.004 -20.674485,0.90001 -25.868265,-10.68327 -1.299842,-2.89893 -1.648437,-14.00261 -1.648437,-14.00261 z m 55.156446,0.0387 -27.578654,0.12955 0.02729,24.51764 c 3.814041,0.001 20.673201,0.92906 25.88325,-10.64691 1.303913,-2.8971 1.668108,-14.00028 1.668108,-14.00028 z"
             id="path52969"
             sodipodi:nodetypes="cccscc"
             inkscape:path-effect="#path-effect58450"
             inkscape:original-d="m 11.41378,160.23377 27.578445,0.1683 -0.06174,24.51758 c -3.814039,-0.004 -20.674485,0.90001 -25.868265,-10.68327 -1.299842,-2.89893 -1.648437,-14.00261 -1.648437,-14.00261 z"
             transform="matrix(1.0529366,0,0,1.0529366,-1.8581042,-11.963042)" />
        </g>
        <g
           id="g60175-3"
           style="fill:none;fill-opacity:1;stroke:#000000;stroke-opacity:1"
           transform="translate(173.44153,-64.827749)">
          <path
             id="path3434-7"
             style="fill:none;fill-opacity:1;stroke:#000000;stroke-width:7.72;stroke-linecap:round;stroke-linejoin:round;stroke-miterlimit:4;stroke-dasharray:none;stroke-opacity:1"
             d="M 11.823211,153.44321 39.651507,76.920382 66.017969,153.44321"
             sodipodi:nodetypes="ccc" />
          <path
             style="fill:#000000;fill-opacity:1;stroke:#000000;stroke-width:7.72355;stroke-linecap:butt;stroke-linejoin:miter;stroke-miterlimit:4;stroke-dasharray:none;stroke-opacity:1"
             d="m 11.41378,160.23377 27.578445,0.1683 -0.06174,24.51758 c -3.814039,-0.004 -20.674485,0.90001 -25.868265,-10.68327 -1.299842,-2.89893 -1.648437,-14.00261 -1.648437,-14.00261 z m 55.156447,0.0387 -27.578655,0.12955 0.02729,24.51764 c 3.814041,0.001 20.6732,0.92906 25.883249,-10.64691 1.303914,-2.8971 1.66811,-14.00028 1.66811,-14.00028 z"
             id="path52969-7"
             sodipodi:nodetypes="cccscc"
             inkscape:path-effect="#path-effect60227"
             inkscape:original-d="m 11.41378,160.23377 27.578445,0.1683 -0.06174,24.51758 c -3.814039,-0.004 -20.674485,0.90001 -25.868265,-10.68327 -1.299842,-2.89893 -1.648437,-14.00261 -1.648437,-14.00261 z"
             transform="matrix(1.0529366,0,0,1.0529366,-1.8581042,-11.963042)" />
        </g>
      </g>
      <circle
         id="path3400"
         style="fill:none;fill-opacity:1;stroke:#000000;stroke-width:9.69842;stroke-linecap:round;stroke-opacity:1"
         cx="137.51439"
         cy="52.459396"
         r="12.650791"
         transform="translate(-11.439,-7.3467)" />
    </g>
  </g>
  <metadata
     id="metadata18">
    <rdf:RDF>
      <cc:Work>
        <dc:format>image/svg+xml</dc:format>
        <dc:type
           rdf:resource="http://purl.org/dc/dcmitype/StillImage" />
        <cc:license
           rdf:resource="http://creativecommons.org/licenses/publicdomain/" />
        <dc:publisher>
          <cc:Agent
             rdf:about="http://openclipart.org/">
            <dc:title>Openclipart</dc:title>
          </cc:Agent>
        </dc:publisher>
        <dc:date>2009-04-05T13:17:50</dc:date>
        <dc:description>Scales like you'd use to weigh something.  Left side is down further than the right.</dc:description>
        <dc:source>https://openclipart.org/detail/24101/scales-by-scott_kirkwood</dc:source>
        <dc:creator>
          <cc:Agent>
            <dc:title>scott_kirkwood</dc:title>
          </cc:Agent>
        </dc:creator>
        <dc:subject>
          <rdf:Bag>
            <rdf:li>balance</rdf:li>
            <rdf:li>scale</rdf:li>
            <rdf:li>silhouette</rdf:li>
          </rdf:Bag>
        </dc:subject>
      </cc:Work>
      <cc:License
         rdf:about="http://creativecommons.org/licenses/publicdomain/">
        <cc:permits
           rdf:resource="http://creativecommons.org/ns#Reproduction" />
        <cc:permits
           rdf:resource="http://creativecommons.org/ns#Distribution" />
        <cc:permits
           rdf:resource="http://creativecommons.org/ns#DerivativeWorks" />
      </cc:License>
    </rdf:RDF>
  </metadata>
  <g
     aria-label="Ananicy Cpp"
     transform="matrix(2.7973797,0,0,2.2531477,-899.15244,29.96339)"
     id="text8893"
     style="font-size:40px;line-height:1.25;font-family:'HeavyData Nerd Font';-inkscape-font-specification:'HeavyData Nerd Font, Normal';white-space:pre;shape-inside:url(#rect8895)">
    <g
       id="g63940"
       transform="translate(-1.4299096,-0.88764711)">
      <path
         d="m 323.79883,131.37197 q -0.95703,0 -0.95703,-0.97656 0,-0.33203 0.11718,-0.54687 l -0.0195,-0.0195 4.00391,-16.73829 0.66406,-2.79296 0.19531,-0.80079 q 0.3711,-1.52343 1.73829,-1.52343 0.15625,0 0.33203,0.0195 v -0.0195 h 6.40625 v 0.0195 q 0.17578,-0.0195 0.33203,-0.0195 1.36719,0 1.73828,1.52343 l 0.19531,0.80079 4.80469,19.51171 q 0.0586,0.23438 0.0586,0.64454 0,0.97656 -0.97656,0.97656 h -5.11719 q -0.17578,0.0195 -0.33203,0.0195 -1.36719,0 -1.73828,-1.52344 l -4.12109,-16.83594 h -0.0195 l -3.94532,16.79688 q -0.37109,1.52344 -1.73828,1.52344 z m 9.375,-1.875 q -0.15625,1.9336 -1.95313,1.95313 -1.95312,0 -1.95312,-1.91406 l -0.0195,-3.96485 q 0,-1.95312 1.95312,-1.95312 1.79688,0.0195 1.95313,1.97265 z"
         id="path63792" />
      <path
         d="m 349.69727,113.09072 v 16.5625 q -0.0195,1.79688 -1.97266,1.79688 -1.95313,0 -1.95313,-1.91406 v -19.72657 q 0,-1.83593 1.97266,-1.89453 l 2.85156,0.0195 q 1.11328,0 1.81641,1.23047 l 5.09766,13.4961 v -12.83203 q 0.15625,-1.95313 1.875,-1.97266 h 3.98437 q 1.95313,0 1.95313,1.95312 l -0.0195,19.76563 q 0,1.875 -1.91406,1.875 h -5.27344 q -1.60156,0 -2.08984,-1.26953 z"
         id="path63794" />
      <path
         d="m 368.74023,131.37197 q -0.95703,0 -0.95703,-0.97656 0,-0.33203 0.11719,-0.54687 l -0.0195,-0.0195 4.00391,-16.73829 0.66406,-2.79296 0.19531,-0.80079 q 0.37109,-1.52343 1.73828,-1.52343 0.15625,0 0.33203,0.0195 v -0.0195 h 6.40625 v 0.0195 q 0.17578,-0.0195 0.33203,-0.0195 1.36719,0 1.73829,1.52343 l 0.19531,0.80079 4.80469,19.51171 q 0.0586,0.23438 0.0586,0.64454 0,0.97656 -0.97656,0.97656 h -5.11719 q -0.17578,0.0195 -0.33203,0.0195 -1.36719,0 -1.73828,-1.52344 l -4.1211,-16.83594 h -0.0195 l -3.94531,16.79688 q -0.37109,1.52344 -1.73828,1.52344 z m 9.375,-1.875 q -0.15625,1.9336 -1.95312,1.95313 -1.95313,0 -1.95313,-1.91406 l -0.0195,-3.96485 q 0,-1.95312 1.95313,-1.95312 1.79687,0.0195 1.95312,1.97265 z"
         id="path63796" />
      <path
         d="m 394.63867,113.09072 v 16.5625 q -0.0195,1.79688 -1.97265,1.79688 -1.95313,0 -1.95313,-1.91406 v -19.72657 q 0,-1.83593 1.97266,-1.89453 l 2.85156,0.0195 q 1.11328,0 1.81641,1.23047 l 5.09765,13.4961 v -12.83203 q 0.15625,-1.95313 1.875,-1.97266 h 3.98438 q 1.95312,0 1.95312,1.95312 l -0.0195,19.76563 q 0,1.875 -1.91406,1.875 h -5.27344 q -1.60156,0 -2.08984,-1.26953 z"
         id="path63798" />
      <path
         d="m 423.95508,129.51651 q -0.15625,1.93359 -1.85547,1.95312 h -4.00391 q -1.95312,0 -1.95312,-1.93359 l -0.0195,-19.64844 q 0,-1.95313 1.95312,-1.95313 h 4.08203 q 1.69922,0.0195 1.85547,1.97266 z"
         id="path63800" />
      <path
         d="m 445.38086,129.49697 q -0.15625,1.95313 -1.85547,1.95313 h -11.83594 q -1.95312,0 -1.95312,-1.95313 l 0.0195,-19.76562 q 0,-1.875 1.91406,-1.875 h 13.71094 q 1.95312,0 1.95312,1.91406 v 3.96485 q 0,1.85546 -1.95312,1.89453 -1.97266,-0.0195 -1.97266,-1.85547 v -1.85547 l -5.83984,-0.0195 0.0195,15.64453 h 5.80078 q 1.91406,0 1.99219,1.95312 z"
         id="path63802" />
      <path
         d="m 456.06445,121.39151 -5.48828,-10.39063 q -0.23437,-0.56641 -0.23437,-1.03516 0,-1.05468 1.1914,-1.67968 0.58594,-0.3125 1.09375,-0.3125 l 3.125,-0.0586 q 0.9375,0 1.54297,1.13282 l 3.94531,7.91015 4.29688,-8.00781 q 0.60547,-1.11328 1.5625,-1.11328 0.48828,0 1.07422,0.29297 1.1914,0.625 1.1914,1.67968 0,0.46875 -0.23437,1.03516 l -5.23438,10.29297 -0.0195,8.37891 q -0.15625,1.93359 -1.85547,1.95312 h -4.0039 q -1.95313,0 -1.95313,-1.93359 z"
         id="path63804" />
      <path
         d="m 499.42383,129.49697 q -0.15625,1.95313 -1.85547,1.95313 h -11.83594 q -1.95312,0 -1.95312,-1.95313 l 0.0195,-19.76562 q 0,-1.875 1.91406,-1.875 h 13.71094 q 1.95312,0 1.95312,1.91406 v 3.96485 q 0,1.85546 -1.95312,1.89453 -1.97266,-0.0195 -1.97266,-1.85547 v -1.85547 l -5.83984,-0.0195 0.0195,15.64453 h 5.80078 q 1.91406,0 1.99219,1.95312 z"
         id="path63806" />
      <path
         d="m 515.06836,111.78213 -5.89844,0.0195 v 5.97656 h 5.85938 z m 7.71484,7.96875 q 0,2.01172 -1.95312,2.01172 l -7.75391,-0.0586 0.0586,7.71484 q 0,2.03125 -1.95313,2.03125 h -3.96484 q -1.95313,0 -1.95313,-1.93359 v -19.60938 q 0,-1.95312 1.95313,-1.95312 l 13.6914,-0.0195 q 1.91407,0 1.91407,1.99219 z"
         id="path63808" />
      <path
         d="m 536.5332,111.78213 -5.89843,0.0195 v 5.97656 h 5.85937 z m 7.71485,7.96875 q 0,2.01172 -1.95313,2.01172 l -7.7539,-0.0586 0.0586,7.71484 q 0,2.03125 -1.95313,2.03125 h -3.96484 q -1.95312,0 -1.95312,-1.93359 v -19.60938 q 0,-1.95312 1.95312,-1.95312 l 13.69141,-0.0195 q 1.91406,0 1.91406,1.99219 z"
         id="path63810" />
    </g>
  </g>
</svg>
